<?xml version="1.0" encoding="UTF-8"?>
<svg width="233px" height="80px" viewBox="0 0 233 80" version="1.1" xmlns="http://www.w3.org/2000/svg" xmlns:xlink="http://www.w3.org/1999/xlink">
    <!-- Generator: Sketch 51.2 (57519) - http://www.bohemiancoding.com/sketch -->
    <title>yellow full</title>
    <desc>Created with Sketch.</desc>
    <defs>
        <path d="M45.3654457,51.8556684 C44.4938552,45.8557887 39.3287377,41.2472736 33.0872439,41.2472736 C26.8560946,41.2472736 21.6977568,45.8405252 20.8134112,51.8258475 C20.658155,52.8766335 19.7563609,53.6549756 18.6941671,53.6549756 L4.96308658,53.6549901 C2.22204955,53.6549901 0,51.4329405 0,48.6919035 L0,4.96308658 C0,2.22204955 2.22204955,0 4.96308658,0 L61.2114012,0 C63.9524382,0 66.1744878,2.22204955 66.1744878,4.96308658 L66.1744878,48.6919035 C66.1744878,51.4329405 63.9524382,53.6549901 61.2114012,53.6549901 L47.4450442,53.6549959 C46.4011529,53.6549959 45.5155145,52.8887165 45.3654457,51.8556684 Z M47.4730021,32.185218 C51.4455195,32.185218 54.6658812,28.9648563 54.6658812,24.9923389 C54.6658812,21.0198214 51.4455195,17.7994598 47.4730021,17.7994598 C43.5004847,17.7994598 40.280123,21.0198214 40.280123,24.9923389 C40.280123,28.9648563 43.5004847,32.185218 47.4730021,32.185218 Z M18.7014857,32.185218 C22.6740031,32.185218 25.8943648,28.9648563 25.8943648,24.9923389 C25.8943648,21.0198214 22.6740031,17.7994598 18.7014857,17.7994598 C14.7289682,17.7994598 11.5086066,21.0198214 11.5086066,24.9923389 C11.5086066,28.9648563 14.7289682,32.185218 18.7014857,32.185218 Z" id="path-1"></path>
    </defs>
    <g id="Page-1" stroke="none" stroke-width="1" fill="none" fill-rule="evenodd">
        <g id="yellow-full">
            <g id="Group-Copy">
                <g id="Group-27">
                    <g id="Group-23-Copy" transform="translate(6.259749, 0.000000)">
                        <g id="Group-19-Copy-19">
                            <g id="Group-18">
                                <g id="Group-11" transform="translate(33.500000, 27.066755) scale(1, -1) translate(-33.500000, -27.066755) translate(0.000000, 0.066755)">
                                    <mask id="mask-2" fill="white">
                                        <use xlink:href="#path-1"></use>
                                    </mask>
                                    <use id="Combined-Shape" fill-opacity="0.700000048" fill="#FCC419" xlink:href="#path-1"></use>
                                </g>
                            </g>
                        </g>
                        <g id="Group-22" transform="translate(11.508607, 22.853548)"></g>
                    </g>
                    <path d="M4.33329775,41.5472571 L75.2549375,41.5472571 C77.6481518,41.5472571 79.5882353,43.503607 79.5882353,45.916887 L79.5882353,75.6303701 C79.5882353,78.0436501 77.6481518,80 75.2549375,80 L4.33329775,80 C1.94008349,80 2.93084219e-16,78.0436501 0,75.6303701 L0,45.916887 C-2.93084219e-16,43.503607 1.94008349,41.5472571 4.33329775,41.5472571 Z M20.4814713,59.9496788 C26.1785382,63.6763918 32.8389422,65.6921045 39.7940149,65.6921045 C46.7426409,65.6921045 53.3972014,63.6801369 59.0909374,59.9598915 C59.9178352,59.4196026 60.1501775,58.3112788 59.6098886,57.4843811 C59.0695997,56.6574833 57.9612759,56.425141 57.1343782,56.9654299 C52.0180599,60.3083948 46.0423855,62.1151051 39.7940149,62.1151051 C33.5398511,62.1151051 27.5589298,60.3050319 22.4396104,56.9562501 C21.6129978,56.4155249 20.5045516,56.6472824 19.9638264,57.4738949 C19.4231013,58.3005074 19.6548587,59.4089536 20.4814713,59.9496788 Z" id="Combined-Shape" fill="#FCC419"></path>
                    <g id="Group-3-Copy" transform="translate(18.779247, 55.855254)"></g>
                </g>
            </g>
            <path d="M127.215791,25 C127.64028,25 128.006879,25.1561889 128.315599,25.4685714 C128.624319,25.7809539 128.778676,26.1519026 128.778676,26.5814286 L128.778676,30.74 C128.778676,31.169526 128.624319,31.5404746 128.315599,31.8528571 C128.006879,32.1652397 127.64028,32.3214286 127.215791,32.3214286 L116.796552,32.3214286 L116.796552,64.4185714 C116.796552,64.8480974 116.642195,65.2190461 116.333475,65.5314286 C116.024755,65.8438111 115.658156,66 115.233667,66 L110.54501,66 C110.12052,66 109.753921,65.8438111 109.445201,65.5314286 C109.136481,65.2190461 108.982124,64.8480974 108.982124,64.4185714 L108.982124,32.3214286 L98.5628857,32.3214286 C98.1383961,32.3214286 97.771797,32.1652397 97.4630773,31.8528571 C97.1543575,31.5404746 97,31.169526 97,30.74 L97,26.5814286 C97,26.1519026 97.1543575,25.7809539 97.4630773,25.4685714 C97.771797,25.1561889 98.1383961,25 98.5628857,25 L127.215791,25 Z M139.747819,66 C139.323329,66 138.95673,65.8438111 138.64801,65.5314286 C138.339291,65.2190461 138.184933,64.8480974 138.184933,64.4185714 L138.184933,26.5814286 C138.184933,26.1519026 138.339291,25.7809539 138.64801,25.4685714 C138.95673,25.1561889 139.323329,25 139.747819,25 L144.436476,25 C144.860965,25 145.227565,25.1561889 145.536284,25.4685714 C145.845004,25.7809539 145.999362,26.1519026 145.999362,26.5814286 L145.999362,64.4185714 C145.999362,64.8480974 145.845004,65.2190461 145.536284,65.5314286 C145.227565,65.8438111 144.860965,66 144.436476,66 L139.747819,66 Z M184.868908,66 C184.097109,66 183.537563,65.8047639 183.190253,65.4142857 C182.842944,65.0238076 182.592113,64.7309534 182.437753,64.5357143 L173.234092,51.5914286 L164.088317,64.5357143 C163.933957,64.7309534 163.683126,65.0238076 163.335816,65.4142857 C162.988506,65.8047639 162.42896,66 161.657161,66 L156.79485,66 C156.37036,66 156.003761,65.8438111 155.695041,65.5314286 C155.386322,65.2190461 155.231964,64.8480974 155.231964,64.4185714 C155.231964,64.2233324 155.289848,64.0085726 155.405618,63.7742857 L168.661205,45.09 L155.984465,27.2257143 C155.868695,26.9914274 155.810811,26.7766676 155.810811,26.5814286 C155.810811,26.1519026 155.965168,25.7809539 156.273888,25.4685714 C156.582608,25.1561889 156.949207,25 157.373697,25 L162.236008,25 C163.007807,25 163.567353,25.1952361 163.914663,25.5857143 C164.261972,25.9761924 164.512803,26.2690466 164.667163,26.4642857 L173.407746,38.8228571 L182.090445,26.4642857 C182.244805,26.2690466 182.495636,25.9761924 182.842945,25.5857143 C183.190255,25.1952361 183.749801,25 184.5216,25 L189.383911,25 C189.808401,25 190.175,25.1561889 190.48372,25.4685714 C190.79244,25.7809539 190.946797,26.1519026 190.946797,26.5814286 C190.946797,26.7766676 190.888913,26.9914274 190.773143,27.2257143 L177.980634,45.3242857 L191.120451,63.7742857 C191.236221,64.0085726 191.294105,64.2233324 191.294105,64.4185714 C191.294105,64.8480974 191.139748,65.2190461 190.831028,65.5314286 C190.522308,65.8438111 190.155709,66 189.731219,66 L184.868908,66 Z M231.437114,25 C231.861604,25 232.228203,25.1561889 232.536923,25.4685714 C232.845642,25.7809539 233,26.1519026 233,26.5814286 C233,26.7766676 232.961411,26.9523802 232.884231,27.1085714 L219.165567,51.5328571 L219.165567,64.4185714 C219.165567,64.8480974 219.01121,65.2190461 218.70249,65.5314286 C218.39377,65.8438111 218.027171,66 217.602681,66 L212.971909,66 C212.547419,66 212.18082,65.8438111 211.8721,65.5314286 C211.563381,65.2190461 211.409023,64.8480974 211.409023,64.4185714 L211.409023,51.5328571 L197.69036,27.1085714 C197.61318,26.9523802 197.57459,26.7766676 197.57459,26.5814286 C197.57459,26.1519026 197.728948,25.7809539 198.037668,25.4685714 C198.346387,25.1561889 198.712986,25 199.137476,25 L203.478825,25 C204.250625,25 204.829465,25.1952361 205.215365,25.5857143 C205.601265,25.9761924 205.832801,26.2690466 205.909981,26.4642857 L215.287295,43.04 L224.664609,26.4642857 C224.741789,26.2690466 224.973326,25.9761924 225.359225,25.5857143 C225.745125,25.1952361 226.323966,25 227.095765,25 L231.437114,25 Z" id="TIXY-Copy-2" fill="#0E2A69"></path>
        </g>
    </g>
</svg>